<svg xmlns="http://www.w3.org/2000/svg" viewBox="0 0 434.91 34.53">
	<path fill="#423414"
		d="M48.86 24.19c-4.59.03-8.53-.97-12-3.44-2.22-1.58-2.32-3.24-.37-5.03 1.45-1.32 3.24-2.11 5.16-2.24 3.79-.25 7.59-.42 11.27 1.03 2.2.87 4.5 1.53 6.78 2.17 2 .55 4.03.96 5.98-.3.53-.34 1.27-.44 1.62.26.35.69-.23 1.22-.67 1.63-1.87 1.77-4.11 3.01-6.5 3.85-3.75 1.31-7.6 2.23-11.27 2.06Zm255.55.18c-4.01.38-7.93-.6-11.43-3.04-2.64-1.83-2.71-3.76-.09-5.55 3.93-2.69 8.34-2.66 12.78-1.72 2 .42 3.95 1.12 5.87 1.85 3.46 1.32 6.91 2.27 10.57.77.23-.09.68.01.86.19.37.36.25.83-.02 1.24-.71 1.09-1.77 1.76-2.86 2.42-4.1 2.46-9.82 4.23-15.66 3.84h-.01Zm-183.08-.05c-4.28-.07-8.17-1.26-11.62-3.72-1.97-1.4-2.04-2.55-.4-4.24 1.7-1.76 3.68-2.82 6.24-3.02 3.86-.31 7.55.19 11.18 1.48 2.23.79 4.5 1.49 6.79 2.09 1.05.28 2.19.23 3.29.32 1.07.09 2.55-1.39 3.01-.31.64 1.52-1.18 2.28-2.28 3.07-4.86 3.53-10.59 3.75-16.21 4.32Zm254.01.13c-2.65.2-6.19-1.02-9.42-3.24-2.4-1.65-2.42-2.76-.24-4.88 1.67-1.62 3.63-2.56 5.93-2.71 2.53-.17 5.06-.29 7.53.6 2.24.81 4.51 1.51 6.77 2.22 2.89.91 5.81 1.7 8.83.5.45-.18 1.03-.19 1.17.31.1.37-.09.95-.36 1.27-1.32 1.65-3.12 2.74-5.02 3.53-4.42 1.85-9.06 2.75-15.21 2.39Zm-144.33-.08c-3.8.26-7.75-.62-11.24-3.12-2.43-1.74-2.53-3.54-.21-5.3 1.92-1.46 4.18-2.09 6.61-2.33 4.4-.42 8.46.83 12.47 2.34 3.32 1.25 6.61 2.19 10.12.84.51-.19.93-.02 1.1.46.09.26 0 .64-.15.89-.64 1.15-1.73 1.79-2.83 2.44-4.42 2.63-9.12 3.79-15.87 3.77Zm-38.45-10.93c2.94-.23 5.24.22 7.49 1.07 1.77.66 3.54 1.37 5.35 1.89 2.58.75 5.18 1.52 7.81.01.3-.17.86.1 1.29.17-.09.43-.07.93-.3 1.28-.34.51-.79 1.01-1.31 1.34-7.73 4.95-15.98 6.47-24.85 3.63-1.51-.48-2.9-1.25-4.14-2.26-1.93-1.58-2.01-2.98-.16-4.69 1.56-1.44 3.48-2.18 5.55-2.4 1.25-.14 2.52-.03 3.26-.03ZM15.4 22.93c-5.06-.01-9.58-.66-13.67-3.11-1.99-1.19-2.01-1.93-.46-3.7 3.5-3.99 8.06-4.05 12.72-3.36 2.01.3 4.01 1 5.91 1.77 3.56 1.46 7.11 2.8 11.06 1.91.44-.1.93 0 1.14.52.22.56-.17.92-.52 1.2-2.75 2.3-6.02 3.5-9.48 4.16-2.34.44-4.71.77-6.71.59Zm72.75.39c-4.9.15-9.37-.65-13.47-2.91-2.34-1.28-2.32-1.95-.61-3.89 3.17-3.61 7.23-4.28 11.65-3.54 2.48.42 4.88 1.21 7.24 2.13 3.5 1.38 7 3.01 10.96 1.77.23-.07.81.23.8.3-.06.44-.11.98-.4 1.26-1.37 1.35-3.07 2.22-4.83 2.92-3.71 1.47-7.57 2.2-11.33 1.95Zm72.77 0c-3.61.2-7.31-.54-10.88-1.97-1.01-.4-1.97-.99-2.88-1.62-.88-.6-1.21-1.42-.41-2.39 2.23-2.67 4.93-4.42 8.53-4.56 3.72-.15 7.21.81 10.62 2.14 3.68 1.44 7.3 3.2 11.45 2.01.21-.06.66.15.76.35.11.22.04.66-.12.86-.92 1.13-2.15 1.83-3.44 2.46-4.22 2.07-8.69 2.87-13.61 2.72Zm255.72.07c-4.69.46-9.14-.34-13.24-2.7-2.23-1.29-2.19-1.95-.36-3.92 3.74-4.06 8.47-3.71 13.22-3.02 1.85.27 3.65.99 5.4 1.71 3.4 1.38 6.78 2.62 10.55 1.93.4-.07 1.1.07 1.25.34.35.66-.18 1.17-.69 1.54-3.24 2.44-6.93 3.75-10.94 4.1-1.73.15-3.47.03-5.2.03Zm-145.93.01c-4.18.36-8.25-.08-12.05-1.99-.85-.42-1.67-.91-2.42-1.48-.71-.55-.85-1.38-.23-2.08 2.13-2.46 4.52-4.35 8.04-4.5 4.05-.17 7.88.54 11.59 2.11 3.38 1.42 6.81 2.7 10.6 1.91.49-.1.94.03 1.14.52.22.54-.18.92-.53 1.2-3.18 2.57-6.91 3.85-10.91 4.28-1.72.19-3.48.03-5.23.03Zm72.88 0c-3.84.28-7.61-.05-11.14-1.73-.99-.47-2.01-.93-2.93-1.54-.9-.59-1.23-1.5-.42-2.4 2.29-2.54 4.85-4.4 8.56-4.43 3.72-.03 7.23.62 10.65 1.99 3.68 1.48 7.38 2.97 11.5 1.91.5-.13 1.05.11 1.03.64-.01.36-.39.8-.72 1.07-3.29 2.69-7.14 4.03-11.31 4.46-1.73.17-3.48.03-5.22.03ZM109.52 12.93c-.79-.11-1.07-.67-1.03-1.34.18-3.33 1.99-5.67 4.83-7.14 1.38-.72 2.97-1.15 4.52-1.41 2.03-.34 4.1-.4 6.16-.56 2.37-.18 4.77-.15 6.88-1.54.5-.33 1.15-.71 1.67 0 .4.56.29 1.19.04 1.8-1.54 3.81-4.3 6.26-8.31 7.13-2.01.44-4.07.7-6.12.8-2.73.13-5.39.31-7.75 1.88-.25.17-.57.26-.86.38h-.01Zm86.47-10.06c2.96-.58 6.61 0 9.49-2.6.55-.5 1.21.09 1.33.79.32 1.89-.62 3.4-1.73 4.75-2.13 2.59-5.03 3.75-8.27 4.16-2.03.26-4.07.57-6.12.7-2.42.15-4.64.77-6.79 1.92-1.15.62-1.86.02-1.72-1.22.27-2.32 1.32-4.18 3.18-5.61 3.03-2.34 6.4-3.36 10.63-2.89Zm46.34-1.04c-.66 3.47-2.76 5.89-5.98 7.32-2.48 1.1-5.17 1.46-7.85 1.49-2.89.03-5.68.18-8.14 1.96-.47.34-1.13.68-1.68.05-.46-.52-.41-1.18-.24-1.79.84-3.06 2.61-5.38 5.54-6.7 2.34-1.05 4.81-1.52 7.36-1.63 3.15-.14 6.32-.15 9.26-1.61.83-.41 1.52-.21 1.75.92Zm14.42 11.15c-.85-.05-1.1-.73-.97-1.32.7-3.02 2.05-5.6 4.97-7.12 2.58-1.34 5.36-1.85 8.22-2.04 3.15-.21 6.3-.22 9.28-1.57 1.02-.46 1.74.34 1.46 1.53-.74 3.16-2.79 5.26-5.65 6.58-2.32 1.07-4.84 1.54-7.35 1.62-3.2.09-6.33.14-9.06 2.11-.23.17-.6.14-.91.2Zm131.5-11.01c-.03.17 0 .66-.17 1.08-1.4 3.38-3.65 5.94-7.3 6.9-1.83.48-3.72.91-5.59.96-3.37.07-6.61.4-9.61 2.11-1.06.6-1.83-.05-1.67-1.28.45-3.43 2.29-5.84 5.47-7.16 2.35-.98 4.81-1.6 7.37-1.57 3.5.03 6.97.02 10.07-2.01.65-.42 1.36.01 1.43.97Zm-35.91.4c-.57 3.22-2.74 5.41-5.78 6.72-2.62 1.13-5.44 1.66-8.31 1.61-2.74-.04-5.36.24-7.65 1.94-.52.39-1.13.62-1.73.23-.65-.42-.57-1.1-.38-1.7 1.08-3.49 2.99-6.19 6.67-7.43 1.83-.62 3.66-.97 5.54-1.15 3.44-.33 6.95-.15 10.22-1.66 1.02-.47 1.34.34 1.44 1.44h-.01Zm-182.48-.42c-.4 2.03-1.36 3.79-3.02 5.16-2.16 1.77-4.71 2.67-7.42 2.81-4.12.21-8.19.39-11.95 2.42-.95.51-1.48-.4-1.35-1.26.44-2.76 1.68-5.06 4.14-6.6 2.2-1.38 4.64-2.12 7.16-2.28 3.62-.22 7.27-.09 10.75-1.43.9-.35 1.48.19 1.68 1.17ZM402.7 12.58c-.77-.21-.99-.83-.89-1.46.4-2.66 1.79-4.7 4.07-6.1 2.33-1.42 4.84-2.28 7.59-2.44 3.62-.2 7.26-.19 10.68-1.72 1.01-.45 1.48.42 1.3 1.28-.64 3.14-2.44 5.42-5.34 6.81-2.48 1.2-5.19 1.41-7.84 1.64-2.99.28-6.01.18-8.7 1.86-.23.15-.6.08-.88.11ZM314.98 2.32c-.63 3.17-2.55 5.55-5.57 7-2.3 1.11-4.77 1.75-7.35 1.64-3.23-.13-6.32.21-9.1 2.03-.49.32-1.12.68-1.68.07-.47-.52-.41-1.19-.23-1.79.93-3.23 2.82-5.67 5.99-6.9 1.91-.75 3.88-1.4 5.98-1.37 3.5.04 6.96-.17 10.19-1.75.85-.41 1.52-.16 1.77 1.06ZM23.96 1.38c-.58 3.27-2.78 5.6-6.02 6.98-2.34 1-4.85 1.48-7.38 1.48-3.05 0-6 .18-8.59 2.06-.44.32-1.2.68-1.65-.08-.22-.38-.38-.93-.28-1.33.67-2.87 2.02-5.31 4.75-6.72 1.99-1.03 4.08-1.75 6.33-1.79 3.81-.06 7.55-.37 11.13-1.84.96-.4 1.74.11 1.71 1.24Zm72.79.53c-.42 3.1-2.44 5.22-5.23 6.62-2.28 1.15-4.77 1.69-7.33 1.54-3.24-.18-6.28.36-9.04 2.13-.55.36-1.14.6-1.73.17-.59-.44-.52-1.09-.35-1.72.83-3.04 2.47-5.44 5.44-6.76 2.32-1.04 4.74-1.75 7.3-1.76 3.17-.02 6.31-.08 9.28-1.41.93-.42 1.47.02 1.66 1.18ZM36.04 12.64c-.95-.26-1.08-.89-.96-1.52.69-3.51 2.63-6.09 5.96-7.46 2.05-.85 4.2-1.48 6.44-1.51 3.34-.05 6.65-.06 9.79-1.48 1.11-.5 1.87.27 1.58 1.42-.77 3.16-2.79 5.31-5.67 6.61-2.18.99-4.52 1.49-6.94 1.34-3.26-.2-6.31.31-9.07 2.16-.36.25-.85.32-1.15.42h.01Zm148.01 11.13c5.16 2.09 11.08 2.17 16.13 5.04 1.79 1.02 3.59 2.07 4.42 4.13.27.68.04 1.48-.73 1.28-4.34-1.15-8.86-.17-13.21-1.3-4.28-1.12-7.55-4.3-7.83-7.93-.05-.73.44-1.29 1.21-1.22Zm35.24.06c.22.02.39 0 .53.06 4.55 1.82 9.58 2.01 14.06 4.08 2.44 1.12 4.89 2.28 6.18 4.88.35.72 0 1.48-.65 1.32-4.34-1.09-8.85.04-13.17-1.22-3.88-1.13-6.9-3.13-7.8-7.35-.16-.74-.19-1.6.87-1.77Zm94.18 10.05c-.23.48-.65.71-1.12.54-2.92-1.02-5.95-.68-8.94-.79-2.57-.1-5.02-.69-7.27-1.95-1.55-.86-2.83-1.98-3.51-3.72-.46-1.17-1.52-2.49-.79-3.54.97-1.4 2.26.12 3.4.38 2.93.65 5.87 1.3 8.77 2.12 3.39.95 6.57 2.36 8.82 5.26.38.49.83.98.64 1.7h.01Zm73.13-.04c-.33.58-.76.82-1.21.64-2.89-1.11-5.92-.68-8.88-.89-1.71-.12-3.44-.42-5.1-.88-3.66-1.04-5.76-3.66-6.73-7.25-.31-1.15.36-1.79 1.58-1.44 4.38 1.24 8.77 2.48 13.14 3.81 2.79.85 5.09 2.46 6.8 4.85.25.35.3.85.41 1.17Zm-107.83-.06c-.26.49-.7.7-1.16.55-3.8-1.26-7.76-1.31-11.69-1.72-4.59-.48-7.75-3.32-9.83-7.36-.18-.35-.18-.94 0-1.28.28-.55.86-.23 1.27-.08 3.46 1.22 7.07 1.6 10.68 2.05 4.1.5 7.46 2.46 10.07 5.67.66.81.84 1.64.66 2.17Zm50.77-10.1c.15.03.33.02.46.07 3.69 1.55 7.64 1.75 11.53 2.32 4.22.61 7.71 2.69 10 6.43.21.35.3 1 .11 1.3-.17.28-.86.46-1.21.35-3.66-1.11-7.46-1.09-11.2-1.53-4.62-.55-8.29-2.93-10.12-7.49-.22-.54-.47-1.19.42-1.46Zm73.57.12c4.05 1.81 8.78 1.58 13.23 2.71 3.5.88 6.32 2.9 8.28 5.98.22.35.26.95.12 1.35-.17.49-.74.54-1.21.4-3.67-1.18-7.5-1.12-11.26-1.6-4.61-.6-8.39-2.88-10.12-7.59-.23-.62-.36-1.28.95-1.23Zm-233.84 8.65c.11.95-.28 1.24-.76 1.28-.46.05-.95-.03-1.4-.15-3.36-.89-6.79-1.26-10.26-1.55-4.77-.4-8.32-2.77-10.11-7.38-.14-.37-.51-.89.15-1.17.27-.11.66-.19.9-.09 3.83 1.75 8.05 1.52 12.04 2.4 3.54.77 6.48 2.44 8.67 5.34.37.49.62 1.06.76 1.31Zm-59.54-9c.29.05.62.06.91.16 3.15 1.12 6.46 1.6 9.67 2.46 3.85 1.03 7.56 2.47 10.13 5.81.41.53.65 1.19.19 1.71-.23.26-.93.34-1.29.19-2.9-1.28-5.95-.69-8.94-.77-3.12-.08-5.92-.91-8.41-2.84-1.73-1.35-2.6-3.16-3.04-5.22-.13-.64.01-1.25.77-1.49Zm-73.04 0c5.24 2.11 11.4 1.96 16.5 5.2 1.19.76 2.3 1.68 3.32 2.65.53.5 1.24 1.24.77 2.07-.51.91-1.38.44-2.08.17-2.62-1.03-5.34-.46-8.01-.54-3.28-.1-6.23-.9-8.83-2.99-1.73-1.38-2.53-3.22-2.88-5.3-.09-.58.11-1.28 1.21-1.27Zm-35.47-.6c.31.07.64.09.93.21 2.95 1.31 6.1 1.61 9.26 1.91 4.65.44 8.54 2.27 11.33 6.14.38.53.67 1.14.37 1.77-.35.71-1.01.52-1.62.35-3.38-.93-6.85-1.11-10.33-1.42-4.89-.44-8.72-2.78-10.57-7.63-.31-.8 0-1.38.65-1.33Zm73.15.56c4.18 2 9.28 1.28 13.92 2.84 2.89.97 5.36 2.64 7.06 5.28.36.54.71 1.17.42 1.75-.32.62-1.04.58-1.66.41-3.66-.99-7.4-1.29-11.16-1.69-4.51-.48-7.95-2.83-9.6-7.3-.24-.64-.35-1.24 1.03-1.28ZM214.92 28c-.03 1-.53 1.75-1.62 1.83-1.1.09-1.79-.58-1.85-1.64-.07-1.06.58-1.83 1.62-1.93 1.07-.1 1.71.56 1.85 1.74ZM138.94 6.97c1.19 0 1.87.54 1.99 1.6.09.87-.45 1.48-1.26 1.67-1.06.26-1.84-.28-2.05-1.3-.23-1.07.44-1.69 1.32-1.97Zm-72.69 3.4c-1.15-.12-1.77-.77-1.71-1.85.05-.85.6-1.45 1.48-1.52 1.09-.09 1.83.48 1.91 1.56.08 1.13-.64 1.67-1.69 1.81Zm-1.83 17.31c.36-1.12.95-1.81 2.02-1.73 1.1.08 1.62.82 1.52 1.89-.1 1.07-.8 1.66-1.87 1.58-1.11-.08-1.49-.91-1.68-1.73Zm75.23 2.15c-1.3-.03-2.01-.55-2.07-1.63-.05-1.05.6-1.79 1.6-1.89 1.04-.1 1.76.56 1.85 1.62.09 1.1-.68 1.59-1.39 1.9Zm295.26-1.64c-.15.91-.63 1.63-1.71 1.75-1.09.12-2.17-.87-2.1-1.91.07-1.05.74-1.67 1.71-1.85 1.03-.19 2.12.88 2.1 2.02ZM321.8 29.97c-1.1 0-1.77-.62-1.87-1.62-.11-1.09.6-1.73 1.64-1.8 1.06-.07 1.78.5 1.87 1.58.09 1.11-.58 1.67-1.63 1.85Zm-35.27-3.69c1.07.09 1.73.63 1.76 1.71.03 1.05-.54 1.77-1.61 1.84-1.09.07-1.71-.61-1.77-1.66-.06-1.09.62-1.64 1.62-1.88Zm-37.62-15.52c-1.03-.23-1.75-.84-1.58-1.96.17-1.07.99-1.66 2.05-1.44.79.15 1.44.77 1.38 1.68-.07 1.08-.74 1.67-1.86 1.73Zm112.62-2.09c.07.97-.52 1.55-1.32 1.69-.8.13-1.55-.26-1.81-1.15-.26-.93.54-1.95 1.52-1.94.91.01 1.38.58 1.6 1.41ZM104.24 29.61c-1.02-.08-1.75-.6-1.8-1.66-.05-1.06.62-1.73 1.64-1.8 1.07-.07 1.75.6 1.83 1.62.09 1.08-.64 1.63-1.68 1.85Zm72.7-3.52c1.16 0 1.86.51 1.96 1.64.07.89-.4 1.58-1.23 1.8-1.09.29-1.89-.33-2.12-1.35-.24-1.07.4-1.77 1.39-2.09Zm184.53 2.04c-.24 1.03-.78 1.75-1.89 1.68-1.07-.07-1.71-.77-1.61-1.83.09-1.03.76-1.73 1.83-1.66 1.05.06 1.63.75 1.67 1.82Zm34.98.19c-.19 1.13-.84 1.76-1.94 1.62-1.08-.14-1.65-.91-1.48-1.99.13-.85.77-1.36 1.66-1.34 1.12.01 1.71.64 1.77 1.72ZM31 29.13c-1.27-.16-1.72-.93-1.59-2.01.1-.89.71-1.4 1.62-1.4 1.13 0 1.79.62 1.77 1.76-.02 1.18-.77 1.65-1.8 1.64Zm1.79-20.85c-.12 1.12-.73 1.73-1.85 1.66-1.17-.08-1.6-.88-1.5-1.93.09-.87.66-1.4 1.57-1.42 1.13-.02 1.72.58 1.79 1.69Zm71.37-1.25c.89.22 1.32.79 1.28 1.67-.04.89-.52 1.44-1.43 1.5-.93.06-1.79-.97-1.5-1.87.24-.75.72-1.38 1.65-1.3Zm73.08.24c.86.04 1.46.48 1.6 1.32.15.86-.32 1.52-1.17 1.64-1.03.15-1.81-.29-1.83-1.44-.01-.87.58-1.33 1.39-1.51Zm36.09.13c.8.23 1.44.62 1.5 1.55.07.99-.84 1.91-1.72 1.71-.85-.2-1.32-.79-1.28-1.7.03-.7.86-1.55 1.5-1.56Zm74.96 1.62c-.11 1.07-.69 1.57-1.52 1.67-.81.1-1.72-1.15-1.46-1.99.24-.79.79-1.34 1.71-1.22.76.1 1.32.89 1.28 1.54Zm144.26 1.58c-.68-.26-1.24-.73-1.22-1.64.03-.98 1.01-1.71 1.93-1.42.89.28 1.2 1.02 1.03 1.81-.16.79-.7 1.36-1.75 1.24Zm-37.57-2.81c1.09.07 1.62.69 1.57 1.53-.05.83-.6 1.46-1.57 1.39-.93-.07-1.48-.7-1.46-1.53.03-.85.67-1.38 1.46-1.39ZM250.27 28.53c-.01.48-.34 1.19-1.26 1.28-1.14.12-1.73-.57-1.75-1.66 0-.94.67-1.46 1.49-1.47.83 0 1.46.5 1.5 1.85Zm71.51-17.86c-.8-.21-1.3-.7-1.17-1.62.1-.69.61-1.11 1.26-1.15.9-.07 1.52.52 1.48 1.36-.03.81-.61 1.37-1.56 1.42Z" />
</svg>